<svg version="1.1" viewBox="0.0 0.0 412.90551181102364 255.3044619422572" fill="none" stroke="none" stroke-linecap="square" stroke-miterlimit="10" xmlns:xlink="http://www.w3.org/1999/xlink" xmlns="http://www.w3.org/2000/svg"><clipPath id="p.0"><path d="m0 0l412.90552 0l0 255.30446l-412.90552 0l0 -255.30446z" clip-rule="nonzero"/></clipPath><g clip-path="url(#p.0)"><path fill="#ffffff" d="m0 0l412.90552 0l0 255.30446l-412.90552 0z" fill-rule="evenodd"/><path fill="#e84e1b" d="m9.608924 113.84995l0 0c0 -7.0750885 34.670902 -12.810585 77.43963 -12.810585c42.768738 0 77.43964 5.7354965 77.43964 12.810585l0 51.242348c0 7.0750885 -34.6709 12.810593 -77.43964 12.810593c-42.768726 0 -77.43963 -5.735504 -77.43963 -12.810593z" fill-rule="evenodd"/><path fill="#000000" fill-opacity="0.0" d="m164.48819 113.84995l0 0c0 7.075096 -34.6709 12.810593 -77.43964 12.810593c-42.768726 0 -77.43963 -5.7354965 -77.43963 -12.810593" fill-rule="evenodd"/><path fill="#000000" fill-opacity="0.0" d="m9.608924 113.84995l0 0c0 -7.0750885 34.670902 -12.810585 77.43963 -12.810585c42.768738 0 77.43964 5.7354965 77.43964 12.810585l0 51.242348c0 7.0750885 -34.6709 12.810593 -77.43964 12.810593c-42.768726 0 -77.43963 -5.735504 -77.43963 -12.810593z" fill-rule="evenodd"/><path stroke="#ffffff" stroke-width="8.0" stroke-linejoin="round" stroke-linecap="butt" d="m164.48819 113.84995l0 0c0 7.075096 -34.6709 12.810593 -77.43964 12.810593c-42.768726 0 -77.43963 -5.7354965 -77.43963 -12.810593" fill-rule="evenodd"/><path stroke="#ffffff" stroke-width="8.0" stroke-linejoin="round" stroke-linecap="butt" d="m9.608924 113.84995l0 0c0 -7.0750885 34.670902 -12.810585 77.43963 -12.810585c42.768738 0 77.43964 5.7354965 77.43964 12.810585l0 51.242348c0 7.0750885 -34.6709 12.810593 -77.43964 12.810593c-42.768726 0 -77.43963 -5.735504 -77.43963 -12.810593z" fill-rule="evenodd"/><path fill="#ffffff" d="m118.20735 173.68767l0 0c0 -22.726303 20.066101 -41.149612 44.818893 -41.149612l0 0c24.752792 0 44.818893 18.42331 44.818893 41.149612l0 0c0 22.726303 -20.066101 41.149597 -44.818893 41.149597l0 0c-24.752792 0 -44.818893 -18.423294 -44.818893 -41.149597z" fill-rule="evenodd"/><path fill="#000000" fill-opacity="0.0" d="m113.87664 101.03937l339.43307 0l0 182.61417l-339.43307 0z" fill-rule="evenodd"/><path fill="#3c3c3b" d="m165.01727 240.92874q-11.296875 0 -21.671875 -3.015625q-10.375 -3.03125 -16.703133 -7.890625l7.4062576 -16.421875q6.0625 4.3125 14.34375 7.078125q8.28125 2.75 16.765625 2.75q6.46875 0 10.4375 -1.28125q3.96875 -1.28125 5.84375 -3.5625q1.890625 -2.296875 1.890625 -5.25q0 -3.78125 -2.96875 -6.0q-2.953125 -2.21875 -7.796875 -3.625q-4.84375 -1.421875 -10.703125 -2.703125q-5.859375 -1.28125 -11.71875 -3.15625q-5.859375 -1.890625 -10.703125 -4.84375q-4.84375 -2.96875 -7.875 -7.8125q-3.03125 -4.859375 -3.03125 -12.390625q0 -8.078125 4.375 -14.75q4.375 -6.671875 13.1875 -10.640625q8.828125 -3.96875 22.15625 -3.96875q8.890625 0 17.5 2.09375q8.625 2.078125 15.21875 6.25l-6.71875 16.5625q-6.609375 -3.765625 -13.203125 -5.578125q-6.59375 -1.828125 -12.921875 -1.828125q-6.328125 0 -10.375 1.484375q-4.03125 1.484375 -5.796875 3.84375q-1.75 2.359375 -1.75 5.453125q0 3.625 2.96875 5.859375q2.96875 2.21875 7.8125 3.5625q4.84375 1.34375 10.703125 2.703125q5.859375 1.34375 11.71875 3.09375q5.859375 1.75 10.703125 4.71875q4.84375 2.953125 7.875 7.796875q3.03125 4.84375 3.03125 12.25q0 7.953125 -4.453125 14.546875q-4.4375 6.59375 -13.265625 10.640625q-8.8125 4.03125 -22.28125 4.03125zm85.910645 0q-11.296875 0 -21.671875 -3.015625q-10.375 -3.03125 -16.703125 -7.890625l7.40625 -16.421875q6.0625 4.3125 14.34375 7.078125q8.28125 2.75 16.765625 2.75q6.46875 0 10.4375 -1.28125q3.96875 -1.28125 5.84375 -3.5625q1.890625 -2.296875 1.890625 -5.25q0 -3.78125 -2.96875 -6.0q-2.953125 -2.21875 -7.796875 -3.625q-4.84375 -1.421875 -10.703125 -2.703125q-5.859375 -1.28125 -11.71875 -3.15625q-5.859375 -1.890625 -10.703125 -4.84375q-4.84375 -2.96875 -7.875 -7.8125q-3.03125 -4.859375 -3.03125 -12.390625q0 -8.078125 4.375 -14.75q4.375 -6.671875 13.1875 -10.640625q8.828125 -3.96875 22.15625 -3.96875q8.890625 0 17.5 2.09375q8.625 2.078125 15.21875 6.25l-6.71875 16.5625q-6.609375 -3.765625 -13.203125 -5.578125q-6.59375 -1.828125 -12.921875 -1.828125q-6.328125 0 -10.375 1.484375q-4.03125 1.484375 -5.796875 3.84375q-1.75 2.359375 -1.75 5.453125q0 3.625 2.96875 5.859375q2.96875 2.21875 7.8125 3.5625q4.84375 1.34375 10.703125 2.703125q5.859375 1.34375 11.71875 3.09375q5.859375 1.75 10.703125 4.71875q4.84375 2.953125 7.875 7.796875q3.03125 4.84375 3.03125 12.25q0 7.953125 -4.453125 14.546875q-4.4375 6.59375 -13.265625 10.640625q-8.8125 4.03125 -22.28125 4.03125zm54.941895 -1.609375l0 -94.265625l42.828125 0q15.34375 0 27.0625 5.859375q11.71875 5.859375 18.3125 16.375q6.59375 10.5 6.59375 24.90625q0 14.265625 -6.59375 24.84375q-6.59375 10.5625 -18.3125 16.421875q-11.71875 5.859375 -27.0625 5.859375l-42.828125 0zm21.8125 -17.90625l19.9375 0q9.421875 0 16.359375 -3.5625q6.9375 -3.578125 10.765625 -10.171875q3.84375 -6.609375 3.84375 -15.484375q0 -9.03125 -3.84375 -15.5625q-3.828125 -6.53125 -10.765625 -10.09375q-6.9375 -3.5625 -16.359375 -3.5625l-19.9375 0l0 58.4375z" fill-rule="nonzero"/><path fill="#e84e1b" d="m9.608835 62.68985l0 0c0 -7.0750885 34.670906 -12.810585 77.43964 -12.810585c42.76873 0 77.43963 5.7354965 77.43963 12.810585l0 51.242348c0 7.0750885 -34.6709 12.810585 -77.43963 12.810585c-42.76873 0 -77.43964 -5.7354965 -77.43964 -12.810585z" fill-rule="evenodd"/><path fill="#000000" fill-opacity="0.0" d="m164.4881 62.68985l0 0c0 7.075096 -34.6709 12.810585 -77.43963 12.810585c-42.76873 0 -77.43964 -5.735489 -77.43964 -12.810585" fill-rule="evenodd"/><path fill="#000000" fill-opacity="0.0" d="m9.608835 62.68985l0 0c0 -7.0750885 34.670906 -12.810585 77.43964 -12.810585c42.76873 0 77.43963 5.7354965 77.43963 12.810585l0 51.242348c0 7.0750885 -34.6709 12.810585 -77.43963 12.810585c-42.76873 0 -77.43964 -5.7354965 -77.43964 -12.810585z" fill-rule="evenodd"/><path stroke="#ffffff" stroke-width="8.0" stroke-linejoin="round" stroke-linecap="butt" d="m164.4881 62.68985l0 0c0 7.075096 -34.6709 12.810585 -77.43963 12.810585c-42.76873 0 -77.43964 -5.735489 -77.43964 -12.810585" fill-rule="evenodd"/><path stroke="#ffffff" stroke-width="8.0" stroke-linejoin="round" stroke-linecap="butt" d="m9.608835 62.68985l0 0c0 -7.0750885 34.670906 -12.810585 77.43964 -12.810585c42.76873 0 77.43963 5.7354965 77.43963 12.810585l0 51.242348c0 7.0750885 -34.6709 12.810585 -77.43963 12.810585c-42.76873 0 -77.43964 -5.7354965 -77.43964 -12.810585z" fill-rule="evenodd"/><path fill="#e84e1b" d="m9.608924 20.470253l0 0c0 -6.3797817 34.670902 -11.551618 77.43963 -11.551618c42.768738 0 77.43964 5.171836 77.43964 11.551618l0 46.206474c0 6.3797836 -34.6709 11.5516205 -77.43964 11.5516205c-42.768726 0 -77.43963 -5.171837 -77.43963 -11.5516205z" fill-rule="evenodd"/><path fill="#000000" fill-opacity="0.0" d="m164.48819 20.470253l0 0c0 6.3797836 -34.6709 11.5516205 -77.43964 11.5516205c-42.768726 0 -77.43963 -5.171837 -77.43963 -11.5516205" fill-rule="evenodd"/><path fill="#000000" fill-opacity="0.0" d="m9.608924 20.470253l0 0c0 -6.3797817 34.670902 -11.551618 77.43963 -11.551618c42.768738 0 77.43964 5.171836 77.43964 11.551618l0 46.206474c0 6.3797836 -34.6709 11.5516205 -77.43964 11.5516205c-42.768726 0 -77.43963 -5.171837 -77.43963 -11.5516205z" fill-rule="evenodd"/><path stroke="#ffffff" stroke-width="8.0" stroke-linejoin="round" stroke-linecap="butt" d="m164.48819 20.470253l0 0c0 6.3797836 -34.6709 11.5516205 -77.43964 11.5516205c-42.768726 0 -77.43963 -5.171837 -77.43963 -11.5516205" fill-rule="evenodd"/><path stroke="#ffffff" stroke-width="8.0" stroke-linejoin="round" stroke-linecap="butt" d="m9.608924 20.470253l0 0c0 -6.3797817 34.670902 -11.551618 77.43963 -11.551618c42.768738 0 77.43964 5.171836 77.43964 11.551618l0 46.206474c0 6.3797836 -34.6709 11.5516205 -77.43964 11.5516205c-42.768726 0 -77.43963 -5.171837 -77.43963 -11.5516205z" fill-rule="evenodd"/></g></svg>