<svg version="1.1" viewBox="0.0 0.0 1120.8005249343832 604.6325459317585" fill="none" stroke="none" stroke-linecap="square" stroke-miterlimit="10" xmlns:xlink="http://www.w3.org/1999/xlink" xmlns="http://www.w3.org/2000/svg"><clipPath id="p.0"><path d="m0 0l1120.8005 0l0 604.63257l-1120.8005 0l0 -604.63257z" clip-rule="nonzero"/></clipPath><g clip-path="url(#p.0)"><path fill="#ffffff" d="m0 0l1120.8005 0l0 604.63257l-1120.8005 0z" fill-rule="evenodd"/><path fill="#e84e1b" d="m54.97638 282.69553l0 0c0 -16.809174 91.34912 -30.435684 204.03397 -30.435684c112.684875 0 204.034 13.626511 204.034 30.435684l0 121.7428c0 16.809174 -91.34912 30.4357 -204.034 30.4357c-112.684845 0 -204.03397 -13.626526 -204.03397 -30.4357z" fill-rule="evenodd"/><path fill="#000000" fill-opacity="0.0" d="m463.04434 282.69553l0 0c0 16.809174 -91.34912 30.4357 -204.034 30.4357c-112.684845 0 -204.03397 -13.626526 -204.03397 -30.4357" fill-rule="evenodd"/><path fill="#000000" fill-opacity="0.0" d="m54.97638 282.69553l0 0c0 -16.809174 91.34912 -30.435684 204.03397 -30.435684c112.684875 0 204.034 13.626511 204.034 30.435684l0 121.7428c0 16.809174 -91.34912 30.4357 -204.034 30.4357c-112.684845 0 -204.03397 -13.626526 -204.03397 -30.4357z" fill-rule="evenodd"/><path stroke="#ffffff" stroke-width="8.0" stroke-linejoin="round" stroke-linecap="butt" d="m463.04434 282.69553l0 0c0 16.809174 -91.34912 30.4357 -204.034 30.4357c-112.684845 0 -204.03397 -13.626526 -204.03397 -30.4357" fill-rule="evenodd"/><path stroke="#ffffff" stroke-width="8.0" stroke-linejoin="round" stroke-linecap="butt" d="m54.97638 282.69553l0 0c0 -16.809174 91.34912 -30.435684 204.03397 -30.435684c112.684875 0 204.034 13.626511 204.034 30.435684l0 121.7428c0 16.809174 -91.34912 30.4357 -204.034 30.4357c-112.684845 0 -204.03397 -13.626526 -204.03397 -30.4357z" fill-rule="evenodd"/><path fill="#e84d1b" d="m54.97638 165.33333l0 0c0 -16.809158 91.34912 -30.435684 204.03397 -30.435684c112.684875 0 204.034 13.626526 204.034 30.435684l0 121.74278c0 16.809174 -91.34912 30.4357 -204.034 30.4357c-112.684845 0 -204.03397 -13.626526 -204.03397 -30.4357z" fill-rule="evenodd"/><path fill="#000000" fill-opacity="0.0" d="m463.04434 165.33333l0 0c0 16.809174 -91.34912 30.4357 -204.034 30.4357c-112.684845 0 -204.03397 -13.626526 -204.03397 -30.4357" fill-rule="evenodd"/><path fill="#000000" fill-opacity="0.0" d="m54.97638 165.33333l0 0c0 -16.809158 91.34912 -30.435684 204.03397 -30.435684c112.684875 0 204.034 13.626526 204.034 30.435684l0 121.74278c0 16.809174 -91.34912 30.4357 -204.034 30.4357c-112.684845 0 -204.03397 -13.626526 -204.03397 -30.4357z" fill-rule="evenodd"/><path stroke="#ffffff" stroke-width="8.0" stroke-linejoin="round" stroke-linecap="butt" d="m463.04434 165.33333l0 0c0 16.809174 -91.34912 30.4357 -204.034 30.4357c-112.684845 0 -204.03397 -13.626526 -204.03397 -30.4357" fill-rule="evenodd"/><path stroke="#ffffff" stroke-width="8.0" stroke-linejoin="round" stroke-linecap="butt" d="m54.97638 165.33333l0 0c0 -16.809158 91.34912 -30.435684 204.03397 -30.435684c112.684875 0 204.034 13.626526 204.034 30.435684l0 121.74278c0 16.809174 -91.34912 30.4357 -204.034 30.4357c-112.684845 0 -204.03397 -13.626526 -204.03397 -30.4357z" fill-rule="evenodd"/><path fill="#e84d1b" d="m54.97638 48.233597l0 0c0 -16.809172 91.34912 -30.435696 204.03397 -30.435696c112.684875 0 204.034 13.626524 204.034 30.435696l0 121.74278c0 16.809174 -91.34912 30.4357 -204.034 30.4357c-112.684845 0 -204.03397 -13.626526 -204.03397 -30.4357z" fill-rule="evenodd"/><path fill="#000000" fill-opacity="0.0" d="m463.04434 48.233597l0 0c0 16.809166 -91.34912 30.435692 -204.034 30.435692c-112.684845 0 -204.03397 -13.626526 -204.03397 -30.435692" fill-rule="evenodd"/><path fill="#000000" fill-opacity="0.0" d="m54.97638 48.233597l0 0c0 -16.809172 91.34912 -30.435696 204.03397 -30.435696c112.684875 0 204.034 13.626524 204.034 30.435696l0 121.74278c0 16.809174 -91.34912 30.4357 -204.034 30.4357c-112.684845 0 -204.03397 -13.626526 -204.03397 -30.4357z" fill-rule="evenodd"/><path stroke="#ffffff" stroke-width="8.0" stroke-linejoin="round" stroke-linecap="butt" d="m463.04434 48.233597l0 0c0 16.809166 -91.34912 30.435692 -204.034 30.435692c-112.684845 0 -204.03397 -13.626526 -204.03397 -30.435692" fill-rule="evenodd"/><path stroke="#ffffff" stroke-width="8.0" stroke-linejoin="round" stroke-linecap="butt" d="m54.97638 48.233597l0 0c0 -16.809172 91.34912 -30.435696 204.03397 -30.435696c112.684875 0 204.034 13.626524 204.034 30.435696l0 121.74278c0 16.809174 -91.34912 30.4357 -204.034 30.4357c-112.684845 0 -204.03397 -13.626526 -204.03397 -30.4357z" fill-rule="evenodd"/><path fill="#ffffff" d="m365.73227 409.70865l0 0c0 -47.818268 43.065277 -86.58267 96.188995 -86.58267l0 0c53.12372 0 96.188965 38.764404 96.188965 86.58267l0 0c0 47.8183 -43.065247 86.5827 -96.188965 86.5827l0 0c-53.12372 0 -96.188995 -38.764404 -96.188995 -86.5827z" fill-rule="evenodd"/><path fill="#ffffff" d="m48.503937 54.283466l0 0c0 -5.218441 4.230381 -9.448822 9.448818 -9.448822l0 0c2.5059853 0 4.9093285 0.99549866 6.681324 2.767498c1.7719955 1.7719955 2.7674942 4.1753387 2.7674942 6.681324l0 0c0 5.218437 -4.230377 9.448818 -9.448818 9.448818l0 0c-5.218437 0 -9.448818 -4.230381 -9.448818 -9.448818z" fill-rule="evenodd"/><path stroke="#ffffff" stroke-width="1.0" stroke-linejoin="round" stroke-linecap="butt" d="m48.503937 54.283466l0 0c0 -5.218441 4.230381 -9.448822 9.448818 -9.448822l0 0c2.5059853 0 4.9093285 0.99549866 6.681324 2.767498c1.7719955 1.7719955 2.7674942 4.1753387 2.7674942 6.681324l0 0c0 5.218437 -4.230377 9.448818 -9.448818 9.448818l0 0c-5.218437 0 -9.448818 -4.230381 -9.448818 -9.448818z" fill-rule="evenodd"/><path fill="#ffffff" d="m159.64043 75.821526l0 0c0 -5.218445 4.230377 -9.448822 9.448807 -9.448822l0 0c2.5059814 0 4.9093323 0.99549866 6.6813354 2.7674942c1.7719879 1.7719955 2.7674866 4.1753387 2.7674866 6.681328l0 0c0 5.218437 -4.230377 9.448814 -9.448822 9.448814l0 0c-5.2184296 0 -9.448807 -4.230377 -9.448807 -9.448814z" fill-rule="evenodd"/><path stroke="#ffffff" stroke-width="1.0" stroke-linejoin="round" stroke-linecap="butt" d="m159.64043 75.821526l0 0c0 -5.218445 4.230377 -9.448822 9.448807 -9.448822l0 0c2.5059814 0 4.9093323 0.99549866 6.6813354 2.7674942c1.7719879 1.7719955 2.7674866 4.1753387 2.7674866 6.681328l0 0c0 5.218437 -4.230377 9.448814 -9.448822 9.448814l0 0c-5.2184296 0 -9.448807 -4.230377 -9.448807 -9.448814z" fill-rule="evenodd"/><path fill="#ffffff" d="m143.40945 22.797901l0 0c0 -5.218439 4.230377 -9.44882 9.448807 -9.44882l0 0c2.5059967 0 4.9093323 0.9954977 6.6813354 2.767496c1.7719879 1.7719955 2.7674866 4.1753407 2.7674866 6.681324l0 0c0 5.218437 -4.230377 9.448818 -9.448822 9.448818l0 0c-5.2184296 0 -9.448807 -4.230381 -9.448807 -9.448818z" fill-rule="evenodd"/><path stroke="#ffffff" stroke-width="1.0" stroke-linejoin="round" stroke-linecap="butt" d="m143.40945 22.797901l0 0c0 -5.218439 4.230377 -9.44882 9.448807 -9.44882l0 0c2.5059967 0 4.9093323 0.9954977 6.6813354 2.767496c1.7719879 1.7719955 2.7674866 4.1753407 2.7674866 6.681324l0 0c0 5.218437 -4.230377 9.448818 -9.448822 9.448818l0 0c-5.2184296 0 -9.448807 -4.230381 -9.448807 -9.448818z" fill-rule="evenodd"/><path fill="#ffffff" d="m297.2861 79.45932l0 0c0 -5.218445 4.230377 -9.448822 9.4487915 -9.448822l0 0c2.506012 0 4.9093323 0.99549866 6.6813354 2.7674942c1.7720032 1.7719955 2.7674866 4.1753464 2.7674866 6.681328l0 0c0 5.218437 -4.230377 9.448814 -9.448822 9.448814l0 0c-5.2184143 0 -9.4487915 -4.230377 -9.4487915 -9.448814z" fill-rule="evenodd"/><path stroke="#ffffff" stroke-width="1.0" stroke-linejoin="round" stroke-linecap="butt" d="m297.2861 79.45932l0 0c0 -5.218445 4.230377 -9.448822 9.4487915 -9.448822l0 0c2.506012 0 4.9093323 0.99549866 6.6813354 2.7674942c1.7720032 1.7719955 2.7674866 4.1753464 2.7674866 6.681328l0 0c0 5.218437 -4.230377 9.448814 -9.448822 9.448814l0 0c-5.2184143 0 -9.4487915 -4.230377 -9.4487915 -9.448814z" fill-rule="evenodd"/><path fill="#ffffff" d="m258.71127 18.065617l0 0c0 -5.218438 4.2304077 -9.448819 9.448822 -9.448819l0 0c2.5059814 0 4.9093323 0.9954977 6.6813354 2.7674952c1.7720032 1.7719975 2.7674866 4.1753416 2.7674866 6.681324l0 0c0 5.218439 -4.230377 9.448818 -9.448822 9.448818l0 0c-5.2184143 0 -9.448822 -4.230379 -9.448822 -9.448818z" fill-rule="evenodd"/><path stroke="#ffffff" stroke-width="1.0" stroke-linejoin="round" stroke-linecap="butt" d="m258.71127 18.065617l0 0c0 -5.218438 4.2304077 -9.448819 9.448822 -9.448819l0 0c2.5059814 0 4.9093323 0.9954977 6.6813354 2.7674952c1.7720032 1.7719975 2.7674866 4.1753416 2.7674866 6.681324l0 0c0 5.218439 -4.230377 9.448818 -9.448822 9.448818l0 0c-5.2184143 0 -9.448822 -4.230379 -9.448822 -9.448818z" fill-rule="evenodd"/><path fill="#ffffff" d="m423.48294 64.1601l0 0c0 -5.218437 4.230377 -9.448818 9.448822 -9.448818l0 0c2.5059814 0 4.9093323 0.99549866 6.681305 2.767498c1.7720032 1.7719955 2.767517 4.1753387 2.767517 6.68132l0 0c0 5.218437 -4.230377 9.448822 -9.448822 9.448822l0 0c-5.218445 0 -9.448822 -4.230385 -9.448822 -9.448822z" fill-rule="evenodd"/><path stroke="#ffffff" stroke-width="1.0" stroke-linejoin="round" stroke-linecap="butt" d="m423.48294 64.1601l0 0c0 -5.218437 4.230377 -9.448818 9.448822 -9.448818l0 0c2.5059814 0 4.9093323 0.99549866 6.681305 2.767498c1.7720032 1.7719955 2.767517 4.1753387 2.767517 6.68132l0 0c0 5.218437 -4.230377 9.448822 -9.448822 9.448822l0 0c-5.218445 0 -9.448822 -4.230385 -9.448822 -9.448822z" fill-rule="evenodd"/><path fill="#ffffff" d="m449.2362 178.09973l0 0c0 -5.2184296 4.2304077 -9.448807 9.448822 -9.448807l0 0c2.5059814 0 4.9093323 0.99549866 6.6813354 2.7674866c1.7720032 1.7720032 2.7674866 4.1753387 2.7674866 6.68132l0 0c0 5.218445 -4.230377 9.448822 -9.448822 9.448822l0 0c-5.2184143 0 -9.448822 -4.230377 -9.448822 -9.448822z" fill-rule="evenodd"/><path stroke="#ffffff" stroke-width="1.0" stroke-linejoin="round" stroke-linecap="butt" d="m449.2362 178.09973l0 0c0 -5.2184296 4.2304077 -9.448807 9.448822 -9.448807l0 0c2.5059814 0 4.9093323 0.99549866 6.6813354 2.7674866c1.7720032 1.7720032 2.7674866 4.1753387 2.7674866 6.68132l0 0c0 5.218445 -4.230377 9.448822 -9.448822 9.448822l0 0c-5.2184143 0 -9.448822 -4.230377 -9.448822 -9.448822z" fill-rule="evenodd"/><path fill="#ffffff" d="m340.97638 196.99738l0 0c0 -5.218445 4.230377 -9.448822 9.448822 -9.448822l0 0c2.5059814 0 4.9093323 0.99549866 6.681305 2.7675018c1.7720032 1.7719879 2.767517 4.1753387 2.767517 6.68132l0 0c0 5.218445 -4.230377 9.448822 -9.448822 9.448822l0 0c-5.218445 0 -9.448822 -4.230377 -9.448822 -9.448822z" fill-rule="evenodd"/><path stroke="#ffffff" stroke-width="1.0" stroke-linejoin="round" stroke-linecap="butt" d="m340.97638 196.99738l0 0c0 -5.218445 4.230377 -9.448822 9.448822 -9.448822l0 0c2.5059814 0 4.9093323 0.99549866 6.681305 2.7675018c1.7720032 1.7719879 2.767517 4.1753387 2.767517 6.68132l0 0c0 5.218445 -4.230377 9.448822 -9.448822 9.448822l0 0c-5.218445 0 -9.448822 -4.230377 -9.448822 -9.448822z" fill-rule="evenodd"/><path fill="#ffffff" d="m220.29134 200.07874l0 0c0 -5.2184296 4.230377 -9.448807 9.448822 -9.448807l0 0c2.5059814 0 4.9093323 0.9954834 6.68132 2.7674866c1.7720032 1.7720032 2.7675018 4.1753387 2.7675018 6.68132l0 0c0 5.218445 -4.230377 9.448822 -9.448822 9.448822l0 0c-5.218445 0 -9.448822 -4.230377 -9.448822 -9.448822z" fill-rule="evenodd"/><path stroke="#ffffff" stroke-width="1.0" stroke-linejoin="round" stroke-linecap="butt" d="m220.29134 200.07874l0 0c0 -5.2184296 4.230377 -9.448807 9.448822 -9.448807l0 0c2.5059814 0 4.9093323 0.9954834 6.68132 2.7674866c1.7720032 1.7720032 2.7675018 4.1753387 2.7675018 6.68132l0 0c0 5.218445 -4.230377 9.448822 -9.448822 9.448822l0 0c-5.218445 0 -9.448822 -4.230377 -9.448822 -9.448822z" fill-rule="evenodd"/><path fill="#ffffff" d="m87.57743 188.42258l0 0c0 -5.218445 4.230377 -9.448822 9.448814 -9.448822l0 0c2.5059814 0 4.9093246 0.99549866 6.681328 2.7674866c1.7719955 1.7720032 2.7674942 4.175354 2.7674942 6.6813354l0 0c0 5.2184296 -4.230385 9.448807 -9.448822 9.448807l0 0c-5.218437 0 -9.448814 -4.230377 -9.448814 -9.448807z" fill-rule="evenodd"/><path stroke="#ffffff" stroke-width="1.0" stroke-linejoin="round" stroke-linecap="butt" d="m87.57743 188.42258l0 0c0 -5.218445 4.230377 -9.448822 9.448814 -9.448822l0 0c2.5059814 0 4.9093246 0.99549866 6.681328 2.7674866c1.7719955 1.7720032 2.7674942 4.175354 2.7674942 6.6813354l0 0c0 5.2184296 -4.230385 9.448807 -9.448822 9.448807l0 0c-5.218437 0 -9.448814 -4.230377 -9.448814 -9.448807z" fill-rule="evenodd"/><path fill="#ffffff" d="m273.3281 318.6614l0 0c0 -5.2184143 4.230377 -9.448822 9.448822 -9.448822l0 0c2.5059814 0 4.9093018 0.9955139 6.681305 2.767517c1.7720032 1.7720032 2.7674866 4.1753235 2.7674866 6.681305l0 0c0 5.218445 -4.230377 9.448822 -9.4487915 9.448822l0 0c-5.218445 0 -9.448822 -4.230377 -9.448822 -9.448822z" fill-rule="evenodd"/><path stroke="#ffffff" stroke-width="1.0" stroke-linejoin="round" stroke-linecap="butt" d="m273.3281 318.6614l0 0c0 -5.2184143 4.230377 -9.448822 9.448822 -9.448822l0 0c2.5059814 0 4.9093018 0.9955139 6.681305 2.767517c1.7720032 1.7720032 2.7674866 4.1753235 2.7674866 6.681305l0 0c0 5.218445 -4.230377 9.448822 -9.4487915 9.448822l0 0c-5.218445 0 -9.448822 -4.230377 -9.448822 -9.448822z" fill-rule="evenodd"/><path fill="#ffffff" d="m143.40945 313.67715l0 0c0 -5.2184143 4.230377 -9.448822 9.448807 -9.448822l0 0c2.5059967 0 4.9093323 0.9955139 6.6813354 2.767517c1.7719879 1.7720032 2.7674866 4.1753235 2.7674866 6.681305l0 0c0 5.218445 -4.230377 9.448822 -9.448822 9.448822l0 0c-5.2184296 0 -9.448807 -4.230377 -9.448807 -9.448822z" fill-rule="evenodd"/><path stroke="#ffffff" stroke-width="1.0" stroke-linejoin="round" stroke-linecap="butt" d="m143.40945 313.67715l0 0c0 -5.2184143 4.230377 -9.448822 9.448807 -9.448822l0 0c2.5059967 0 4.9093323 0.9955139 6.6813354 2.767517c1.7719879 1.7720032 2.7674866 4.1753235 2.7674866 6.681305l0 0c0 5.218445 -4.230377 9.448822 -9.448822 9.448822l0 0c-5.2184296 0 -9.448807 -4.230377 -9.448807 -9.448822z" fill-rule="evenodd"/><path fill="#ffffff" d="m403.2467 308.063l0 0c0 -5.218445 4.2304077 -9.448822 9.448822 -9.448822l0 0c2.5059814 0 4.9093323 0.9955139 6.6813354 2.767517c1.7720032 1.7719727 2.7674866 4.1753235 2.7674866 6.681305l0 0c0 5.218445 -4.230377 9.448822 -9.448822 9.448822l0 0c-5.2184143 0 -9.448822 -4.230377 -9.448822 -9.448822z" fill-rule="evenodd"/><path stroke="#ffffff" stroke-width="1.0" stroke-linejoin="round" stroke-linecap="butt" d="m403.2467 308.063l0 0c0 -5.218445 4.2304077 -9.448822 9.448822 -9.448822l0 0c2.5059814 0 4.9093323 0.9955139 6.6813354 2.767517c1.7720032 1.7719727 2.7674866 4.1753235 2.7674866 6.681305l0 0c0 5.218445 -4.230377 9.448822 -9.448822 9.448822l0 0c-5.2184143 0 -9.448822 -4.230377 -9.448822 -9.448822z" fill-rule="evenodd"/><path fill="#ffffff" d="m46.85302 408.48294l0 0c0 -5.218445 4.230377 -9.448822 9.448818 -9.448822l0 0c2.5059814 0 4.9093246 0.9955139 6.681324 2.7674866c1.7719955 1.7720032 2.7674942 4.175354 2.7674942 6.6813354l0 0c0 5.218445 -4.230381 9.448822 -9.448818 9.448822l0 0c-5.218441 0 -9.448818 -4.230377 -9.448818 -9.448822z" fill-rule="evenodd"/><path stroke="#ffffff" stroke-width="1.0" stroke-linejoin="round" stroke-linecap="butt" d="m46.85302 408.48294l0 0c0 -5.218445 4.230377 -9.448822 9.448818 -9.448822l0 0c2.5059814 0 4.9093246 0.9955139 6.681324 2.7674866c1.7719955 1.7720032 2.7674942 4.175354 2.7674942 6.6813354l0 0c0 5.218445 -4.230381 9.448822 -9.448818 9.448822l0 0c-5.218441 0 -9.448818 -4.230377 -9.448818 -9.448822z" fill-rule="evenodd"/><path fill="#ffffff" d="m167.3727 431.16534l0 0c0 -5.2184143 4.2303925 -9.448822 9.448822 -9.448822l0 0c2.5059814 0 4.9093323 0.9955139 6.6813354 2.767517c1.7719879 1.7720032 2.7674866 4.1753235 2.7674866 6.681305l0 0c0 5.218445 -4.230377 9.448822 -9.448822 9.448822l0 0c-5.2184296 0 -9.448822 -4.230377 -9.448822 -9.448822z" fill-rule="evenodd"/><path stroke="#ffffff" stroke-width="1.0" stroke-linejoin="round" stroke-linecap="butt" d="m167.3727 431.16534l0 0c0 -5.2184143 4.2303925 -9.448822 9.448822 -9.448822l0 0c2.5059814 0 4.9093323 0.9955139 6.6813354 2.767517c1.7719879 1.7720032 2.7674866 4.1753235 2.7674866 6.681305l0 0c0 5.218445 -4.230377 9.448822 -9.448822 9.448822l0 0c-5.2184296 0 -9.448822 -4.230377 -9.448822 -9.448822z" fill-rule="evenodd"/><path fill="#ffffff" d="m306.8294 432.76904l0 0c0 -5.218445 4.230377 -9.448822 9.448822 -9.448822l0 0c2.5059814 0 4.9093018 0.9954834 6.681305 2.7674866c1.7720032 1.7720032 2.7674866 4.175354 2.7674866 6.6813354l0 0c0 5.2184143 -4.230377 9.4487915 -9.4487915 9.4487915l0 0c-5.218445 0 -9.448822 -4.230377 -9.448822 -9.4487915z" fill-rule="evenodd"/><path stroke="#ffffff" stroke-width="1.0" stroke-linejoin="round" stroke-linecap="butt" d="m306.8294 432.76904l0 0c0 -5.218445 4.230377 -9.448822 9.448822 -9.448822l0 0c2.5059814 0 4.9093018 0.9954834 6.681305 2.7674866c1.7720032 1.7720032 2.7674866 4.175354 2.7674866 6.6813354l0 0c0 5.2184143 -4.230377 9.4487915 -9.4487915 9.4487915l0 0c-5.218445 0 -9.448822 -4.230377 -9.448822 -9.4487915z" fill-rule="evenodd"/><path fill="#ffffff" d="m45.721786 293.17584l0 0c0 -5.2184143 4.230377 -9.448822 9.448818 -9.448822l0 0c2.5059814 0 4.9093246 0.9955139 6.681324 2.767517c1.7719955 1.7720032 2.7674942 4.1753235 2.7674942 6.681305l0 0c0 5.218445 -4.230381 9.448822 -9.448818 9.448822l0 0c-5.218441 0 -9.448818 -4.230377 -9.448818 -9.448822z" fill-rule="evenodd"/><path stroke="#ffffff" stroke-width="1.0" stroke-linejoin="round" stroke-linecap="butt" d="m45.721786 293.17584l0 0c0 -5.2184143 4.230377 -9.448822 9.448818 -9.448822l0 0c2.5059814 0 4.9093246 0.9955139 6.681324 2.767517c1.7719955 1.7720032 2.7674942 4.1753235 2.7674942 6.681305l0 0c0 5.218445 -4.230381 9.448822 -9.448818 9.448822l0 0c-5.218441 0 -9.448818 -4.230377 -9.448818 -9.448822z" fill-rule="evenodd"/><path fill="#000000" fill-opacity="0.0" d="m56.19685 408.14172l95.71654 -93.858246" fill-rule="evenodd"/><path stroke="#ffffff" stroke-width="1.0" stroke-linejoin="round" stroke-linecap="butt" d="m56.19685 408.14172l95.71654 -93.858246" fill-rule="evenodd"/><path fill="#000000" fill-opacity="0.0" d="m177.17061 431.30447l-25.259842 -117.44882" fill-rule="evenodd"/><path stroke="#ffffff" stroke-width="1.0" stroke-linejoin="round" stroke-linecap="butt" d="m177.17061 431.30447l-25.259842 -117.44882" fill-rule="evenodd"/><path fill="#000000" fill-opacity="0.0" d="m177.17061 431.7034l-121.85828 -137.88974" fill-rule="evenodd"/><path stroke="#ffffff" stroke-width="1.0" stroke-linejoin="round" stroke-linecap="butt" d="m177.17061 431.7034l-121.85828 -137.88974" fill-rule="evenodd"/><path fill="#000000" fill-opacity="0.0" d="m282.1916 319.06824l-226.20471 89.95276" fill-rule="evenodd"/><path stroke="#ffffff" stroke-width="1.0" stroke-linejoin="round" stroke-linecap="butt" d="m282.1916 319.06824l-226.20471 89.95276" fill-rule="evenodd"/><path fill="#000000" fill-opacity="0.0" d="m282.99213 319.86877l-106.20473 111.8425" fill-rule="evenodd"/><path stroke="#ffffff" stroke-width="1.0" stroke-linejoin="round" stroke-linecap="butt" d="m282.99213 319.86877l-106.20473 111.8425" fill-rule="evenodd"/><path fill="#000000" fill-opacity="0.0" d="m151.91864 314.25723l164.34647 119.46454" fill-rule="evenodd"/><path stroke="#ffffff" stroke-width="1.0" stroke-linejoin="round" stroke-linecap="butt" d="m151.91864 314.25723l164.34647 119.46454" fill-rule="evenodd"/><path fill="#000000" fill-opacity="0.0" d="m412.46457 308.2467l-96.188965 124.66144" fill-rule="evenodd"/><path stroke="#ffffff" stroke-width="1.0" stroke-linejoin="round" stroke-linecap="butt" d="m412.46457 308.2467l-96.188965 124.66144" fill-rule="evenodd"/><path fill="#000000" fill-opacity="0.0" d="m283.3937 319.86877l32.472443 113.82675" fill-rule="evenodd"/><path stroke="#ffffff" stroke-width="1.0" stroke-linejoin="round" stroke-linecap="butt" d="m283.3937 319.86877l32.472443 113.82675" fill-rule="evenodd"/><path fill="#000000" fill-opacity="0.0" d="m176.37007 431.7034l235.68504 -123.46457" fill-rule="evenodd"/><path stroke="#ffffff" stroke-width="1.0" stroke-linejoin="round" stroke-linecap="butt" d="m176.37007 431.7034l235.68504 -123.46457" fill-rule="evenodd"/><path fill="#000000" fill-opacity="0.0" d="m96.2021 188.79527l-41.29134 104.62993" fill-rule="evenodd"/><path stroke="#ffffff" stroke-width="1.0" stroke-linejoin="round" stroke-linecap="butt" d="m96.2021 188.79527l-41.29134 104.62993" fill-rule="evenodd"/><path fill="#000000" fill-opacity="0.0" d="m228.87927 200.01837l-173.95276 93.38583" fill-rule="evenodd"/><path stroke="#ffffff" stroke-width="1.0" stroke-linejoin="round" stroke-linecap="butt" d="m228.87927 200.01837l-173.95276 93.38583" fill-rule="evenodd"/><path fill="#000000" fill-opacity="0.0" d="m229.6798 200.41995l-76.944885 113.44882" fill-rule="evenodd"/><path stroke="#ffffff" stroke-width="1.0" stroke-linejoin="round" stroke-linecap="butt" d="m229.6798 200.41995l-76.944885 113.44882" fill-rule="evenodd"/><path fill="#000000" fill-opacity="0.0" d="m97.002625 189.5958l55.716537 123.87402" fill-rule="evenodd"/><path stroke="#ffffff" stroke-width="1.0" stroke-linejoin="round" stroke-linecap="butt" d="m97.002625 189.5958l55.716537 123.87402" fill-rule="evenodd"/><path fill="#000000" fill-opacity="0.0" d="m230.08136 200.01837l52.125977 119.055115" fill-rule="evenodd"/><path stroke="#ffffff" stroke-width="1.0" stroke-linejoin="round" stroke-linecap="butt" d="m230.08136 200.01837l52.125977 119.055115" fill-rule="evenodd"/><path fill="#000000" fill-opacity="0.0" d="m152.71916 313.4567l197.22835 -116.62993" fill-rule="evenodd"/><path stroke="#ffffff" stroke-width="1.0" stroke-linejoin="round" stroke-linecap="butt" d="m152.71916 313.4567l197.22835 -116.62993" fill-rule="evenodd"/><path fill="#000000" fill-opacity="0.0" d="m282.59055 318.66666l68.15747 -121.82677" fill-rule="evenodd"/><path stroke="#ffffff" stroke-width="1.0" stroke-linejoin="round" stroke-linecap="butt" d="m282.59055 318.66666l68.15747 -121.82677" fill-rule="evenodd"/><path fill="#000000" fill-opacity="0.0" d="m412.86353 309.04724l45.700775 -130.67717" fill-rule="evenodd"/><path stroke="#ffffff" stroke-width="1.0" stroke-linejoin="round" stroke-linecap="butt" d="m412.86353 309.04724l45.700775 -130.67717" fill-rule="evenodd"/><path fill="#000000" fill-opacity="0.0" d="m412.46457 307.84515l-62.519684 -110.23624" fill-rule="evenodd"/><path stroke="#ffffff" stroke-width="1.0" stroke-linejoin="round" stroke-linecap="butt" d="m412.46457 307.84515l-62.519684 -110.23624" fill-rule="evenodd"/><path fill="#000000" fill-opacity="0.0" d="m458.5013 179.12599l-175.90552 139.937" fill-rule="evenodd"/><path stroke="#ffffff" stroke-width="1.0" stroke-linejoin="round" stroke-linecap="butt" d="m458.5013 179.12599l-175.90552 139.937" fill-rule="evenodd"/><path fill="#000000" fill-opacity="0.0" d="m412.86353 308.2467l-183.59056 -109.00786" fill-rule="evenodd"/><path stroke="#ffffff" stroke-width="1.0" stroke-linejoin="round" stroke-linecap="butt" d="m412.86353 308.2467l-183.59056 -109.00786" fill-rule="evenodd"/><path fill="#000000" fill-opacity="0.0" d="m282.59055 319.46982l-185.19684 -130.26772" fill-rule="evenodd"/><path stroke="#ffffff" stroke-width="1.0" stroke-linejoin="round" stroke-linecap="butt" d="m282.59055 319.46982l-185.19684 -130.26772" fill-rule="evenodd"/><path fill="#000000" fill-opacity="0.0" d="m349.93176 197.61417l-179.68504 -121.354324" fill-rule="evenodd"/><path stroke="#ffffff" stroke-width="1.0" stroke-linejoin="round" stroke-linecap="butt" d="m349.93176 197.61417l-179.68504 -121.354324" fill-rule="evenodd"/><path fill="#000000" fill-opacity="0.0" d="m432.10498 63.732285l25.88977 112.28346" fill-rule="evenodd"/><path stroke="#ffffff" stroke-width="1.0" stroke-linejoin="round" stroke-linecap="butt" d="m432.10498 63.732285l25.88977 112.28346" fill-rule="evenodd"/><path fill="#000000" fill-opacity="0.0" d="m307.042 80.16798l151.52756 98.20472" fill-rule="evenodd"/><path stroke="#ffffff" stroke-width="1.0" stroke-linejoin="round" stroke-linecap="butt" d="m307.042 80.16798l151.52756 98.20472" fill-rule="evenodd"/><path fill="#000000" fill-opacity="0.0" d="m432.50656 63.732285l-82.17322 133.07086" fill-rule="evenodd"/><path stroke="#ffffff" stroke-width="1.0" stroke-linejoin="round" stroke-linecap="butt" d="m432.50656 63.732285l-82.17322 133.07086" fill-rule="evenodd"/><path fill="#000000" fill-opacity="0.0" d="m307.042 79.367455l44.094482 117.85827" fill-rule="evenodd"/><path stroke="#ffffff" stroke-width="1.0" stroke-linejoin="round" stroke-linecap="butt" d="m307.042 79.367455l44.094482 117.85827" fill-rule="evenodd"/><path fill="#000000" fill-opacity="0.0" d="m307.042 79.367455l-77.76378 121.039375" fill-rule="evenodd"/><path stroke="#ffffff" stroke-width="1.0" stroke-linejoin="round" stroke-linecap="butt" d="m307.042 79.367455l-77.76378 121.039375" fill-rule="evenodd"/><path fill="#000000" fill-opacity="0.0" d="m169.0 76.0l60.692917 123.2126" fill-rule="evenodd"/><path stroke="#ffffff" stroke-width="1.0" stroke-linejoin="round" stroke-linecap="butt" d="m169.0 76.0l60.692917 123.2126" fill-rule="evenodd"/><path fill="#000000" fill-opacity="0.0" d="m169.24934 76.0l-71.84252 112.0" fill-rule="evenodd"/><path stroke="#ffffff" stroke-width="1.0" stroke-linejoin="round" stroke-linecap="butt" d="m169.24934 76.0l-71.84252 112.0" fill-rule="evenodd"/><path fill="#000000" fill-opacity="0.0" d="m55.587925 56.225723l173.29135 143.81102" fill-rule="evenodd"/><path stroke="#ffffff" stroke-width="1.0" stroke-linejoin="round" stroke-linecap="butt" d="m55.587925 56.225723l173.29135 143.81102" fill-rule="evenodd"/><path fill="#000000" fill-opacity="0.0" d="m57.824146 54.947506l38.771656 133.44882" fill-rule="evenodd"/><path stroke="#ffffff" stroke-width="1.0" stroke-linejoin="round" stroke-linecap="butt" d="m57.824146 54.947506l38.771656 133.44882" fill-rule="evenodd"/><path fill="#000000" fill-opacity="0.0" d="m306.24146 78.96588l-209.22833 109.82677" fill-rule="evenodd"/><path stroke="#ffffff" stroke-width="1.0" stroke-linejoin="round" stroke-linecap="butt" d="m306.24146 78.96588l-209.22833 109.82677" fill-rule="evenodd"/><path fill="#000000" fill-opacity="0.0" d="m433.70865 64.13386l-203.62204 136.28348" fill-rule="evenodd"/><path stroke="#ffffff" stroke-width="1.0" stroke-linejoin="round" stroke-linecap="butt" d="m433.70865 64.13386l-203.62204 136.28348" fill-rule="evenodd"/><path fill="#000000" fill-opacity="0.0" d="m57.501312 50.249344l95.74803 -23.023623" fill-rule="evenodd"/><path stroke="#ffffff" stroke-width="1.0" stroke-linejoin="round" stroke-linecap="butt" d="m57.501312 50.249344l95.74803 -23.023623" fill-rule="evenodd"/><path fill="#000000" fill-opacity="0.0" d="m168.24934 73.750656l-15.527557 -48.850395" fill-rule="evenodd"/><path stroke="#ffffff" stroke-width="1.0" stroke-linejoin="round" stroke-linecap="butt" d="m168.24934 73.750656l-15.527557 -48.850395" fill-rule="evenodd"/><path fill="#000000" fill-opacity="0.0" d="m303.81366 74.755905l-148.53545 -48.56693" fill-rule="evenodd"/><path stroke="#ffffff" stroke-width="1.0" stroke-linejoin="round" stroke-linecap="butt" d="m303.81366 74.755905l-148.53545 -48.56693" fill-rule="evenodd"/><path fill="#000000" fill-opacity="0.0" d="m305.57217 74.91601l-35.93701 -51.59055" fill-rule="evenodd"/><path stroke="#ffffff" stroke-width="1.0" stroke-linejoin="round" stroke-linecap="butt" d="m305.57217 74.91601l-35.93701 -51.59055" fill-rule="evenodd"/><path fill="#000000" fill-opacity="0.0" d="m433.35696 63.574802l-59.748047 -36.56693" fill-rule="evenodd"/><path stroke="#ffffff" stroke-width="1.0" stroke-linejoin="round" stroke-linecap="butt" d="m433.35696 63.574802l-59.748047 -36.56693" fill-rule="evenodd"/><path fill="#ffffff" d="m421.72046 386.90552l0 0c0 -5.218445 4.2304077 -9.448822 9.448822 -9.448822l0 0c2.5059814 0 4.9093323 0.9954834 6.6813354 2.7674866c1.7720032 1.7720032 2.7674866 4.175354 2.7674866 6.6813354l0 0c0 5.218445 -4.230377 9.448822 -9.448822 9.448822l0 0c-5.2184143 0 -9.448822 -4.230377 -9.448822 -9.448822z" fill-rule="evenodd"/><path stroke="#ffffff" stroke-width="1.0" stroke-linejoin="round" stroke-linecap="butt" d="m421.72046 386.90552l0 0c0 -5.218445 4.2304077 -9.448822 9.448822 -9.448822l0 0c2.5059814 0 4.9093323 0.9954834 6.6813354 2.7674866c1.7720032 1.7720032 2.7674866 4.175354 2.7674866 6.6813354l0 0c0 5.218445 -4.230377 9.448822 -9.448822 9.448822l0 0c-5.2184143 0 -9.448822 -4.230377 -9.448822 -9.448822z" fill-rule="evenodd"/><path fill="#000000" fill-opacity="0.0" d="m282.49344 319.00787l148.50394 68.25198" fill-rule="evenodd"/><path stroke="#ffffff" stroke-width="1.0" stroke-linejoin="round" stroke-linecap="butt" d="m282.49344 319.00787l148.50394 68.25198" fill-rule="evenodd"/><path fill="#000000" fill-opacity="0.0" d="m412.75067 308.0l18.48816 78.48819" fill-rule="evenodd"/><path stroke="#ffffff" stroke-width="1.0" stroke-linejoin="round" stroke-linecap="butt" d="m412.75067 308.0l18.48816 78.48819" fill-rule="evenodd"/><path fill="#000000" fill-opacity="0.0" d="m315.5013 432.5013l115.74802 -45.763794" fill-rule="evenodd"/><path stroke="#ffffff" stroke-width="1.0" stroke-linejoin="round" stroke-linecap="butt" d="m315.5013 432.5013l115.74802 -45.763794" fill-rule="evenodd"/><path fill="#000000" fill-opacity="0.0" d="m412.5013 309.0l63.18109 -65.41733" fill-rule="evenodd"/><path stroke="#ffffff" stroke-width="1.0" stroke-linejoin="round" stroke-linecap="butt" d="m412.5013 309.0l63.18109 -65.41733" fill-rule="evenodd"/><path fill="#000000" fill-opacity="0.0" d="m350.6168 198.70866l125.13388 39.55905" fill-rule="evenodd"/><path stroke="#ffffff" stroke-width="1.0" stroke-linejoin="round" stroke-linecap="butt" d="m350.6168 198.70866l125.13388 39.55905" fill-rule="evenodd"/><path fill="#000000" fill-opacity="0.0" d="m349.75067 196.75066l127.74802 -73.51181" fill-rule="evenodd"/><path stroke="#ffffff" stroke-width="1.0" stroke-linejoin="round" stroke-linecap="butt" d="m349.75067 196.75066l127.74802 -73.51181" fill-rule="evenodd"/><path fill="#000000" fill-opacity="0.0" d="m433.51706 65.0105l44.75592 58.48819" fill-rule="evenodd"/><path stroke="#ffffff" stroke-width="1.0" stroke-linejoin="round" stroke-linecap="butt" d="m433.51706 65.0105l44.75592 58.48819" fill-rule="evenodd"/><path fill="#ffffff" d="m359.87402 24.154856l0 0c0 -5.218439 4.230377 -9.448819 9.448822 -9.448819l0 0c2.5059814 0 4.9093018 0.9954977 6.681305 2.7674952c1.7720032 1.7719975 2.767517 4.1753407 2.767517 6.681324l0 0c0 5.218439 -4.2304077 9.44882 -9.448822 9.44882l0 0c-5.218445 0 -9.448822 -4.230381 -9.448822 -9.44882z" fill-rule="evenodd"/><path stroke="#ffffff" stroke-width="1.0" stroke-linejoin="round" stroke-linecap="butt" d="m359.87402 24.154856l0 0c0 -5.218439 4.230377 -9.448819 9.448822 -9.448819l0 0c2.5059814 0 4.9093018 0.9954977 6.681305 2.7674952c1.7720032 1.7719975 2.767517 4.1753407 2.767517 6.681324l0 0c0 5.218439 -4.2304077 9.44882 -9.448822 9.44882l0 0c-5.218445 0 -9.448822 -4.230381 -9.448822 -9.44882z" fill-rule="evenodd"/><path fill="#000000" fill-opacity="0.0" d="m309.7244 74.91601l56.881897 -48.409447" fill-rule="evenodd"/><path stroke="#ffffff" stroke-width="1.0" stroke-linejoin="round" stroke-linecap="butt" d="m309.7244 74.91601l56.881897 -48.409447" fill-rule="evenodd"/><path fill="#000000" fill-opacity="0.0" d="m429.5013 62.375328l-159.40158 -40.34646" fill-rule="evenodd"/><path stroke="#ffffff" stroke-width="1.0" stroke-linejoin="round" stroke-linecap="butt" d="m429.5013 62.375328l-159.40158 -40.34646" fill-rule="evenodd"/><path fill="#000000" fill-opacity="0.0" d="m168.24934 72.249344l98.488174 -50.519684" fill-rule="evenodd"/><path stroke="#ffffff" stroke-width="1.0" stroke-linejoin="round" stroke-linecap="butt" d="m168.24934 72.249344l98.488174 -50.519684" fill-rule="evenodd"/><path fill="#000000" fill-opacity="0.0" d="m169.0 76.249344l-125.543304 51.87401" fill-rule="evenodd"/><path stroke="#ffffff" stroke-width="1.0" stroke-linejoin="round" stroke-linecap="butt" d="m169.0 76.249344l-125.543304 51.87401" fill-rule="evenodd"/><path fill="#000000" fill-opacity="0.0" d="m43.375328 132.37534l53.385826 56.0" fill-rule="evenodd"/><path stroke="#ffffff" stroke-width="1.0" stroke-linejoin="round" stroke-linecap="butt" d="m43.375328 132.37534l53.385826 56.0" fill-rule="evenodd"/><path fill="#000000" fill-opacity="0.0" d="m96.874016 188.37534l-56.62992 50.362198" fill-rule="evenodd"/><path stroke="#ffffff" stroke-width="1.0" stroke-linejoin="round" stroke-linecap="butt" d="m96.874016 188.37534l-56.62992 50.362198" fill-rule="evenodd"/><path fill="#000000" fill-opacity="0.0" d="m152.50131 313.5013l-110.96063 -80.91339" fill-rule="evenodd"/><path stroke="#ffffff" stroke-width="1.0" stroke-linejoin="round" stroke-linecap="butt" d="m152.50131 313.5013l-110.96063 -80.91339" fill-rule="evenodd"/><path fill="#000000" fill-opacity="0.0" d="m44.375328 349.75067l108.37795 -36.37796" fill-rule="evenodd"/><path stroke="#ffffff" stroke-width="1.0" stroke-linejoin="round" stroke-linecap="butt" d="m44.375328 349.75067l108.37795 -36.37796" fill-rule="evenodd"/><path fill="#000000" fill-opacity="0.0" d="m58.46194 53.1916l208.94489 -30.64567" fill-rule="evenodd"/><path stroke="#ffffff" stroke-width="1.0" stroke-linejoin="round" stroke-linecap="butt" d="m58.46194 53.1916l208.94489 -30.64567" fill-rule="evenodd"/><path fill="#000000" fill-opacity="0.0" d="m432.87927 60.220474l9.259827 -38.803154" fill-rule="evenodd"/><path stroke="#ffffff" stroke-width="1.0" stroke-linejoin="round" stroke-linecap="butt" d="m432.87927 60.220474l9.259827 -38.803154" fill-rule="evenodd"/><path fill="#000000" fill-opacity="0.0" d="m170.75066 73.50131l201.00789 -48.755905" fill-rule="evenodd"/><path stroke="#ffffff" stroke-width="1.0" stroke-linejoin="round" stroke-linecap="butt" d="m170.75066 73.50131l201.00789 -48.755905" fill-rule="evenodd"/><g mask="url(#mask-p.1)"><use xlink:href="#p.1" transform="matrix(1.0 0.0 0.0 -1.0 0.0 1348.9606299212599)"/></g><defs><mask id="mask-p.1" maskUnits="userSpaceOnUse" x="360.46194225721786" y="676.4803149606299" width="899.1181102362206" height="423.40157480314963"><linearGradient gradientUnits="userSpaceOnUse" id="gradient-p.1" x1="360.46194226900025" y1="676.4770601619932" x2="360.46040954771865" y2="1099.8818897582312"><stop offset="0%" stop-color="#ffffff" stop-opacity="1.0"/><stop offset="100%" stop-color="#ffffff" stop-opacity="0.0"/></linearGradient><rect fill="url(#gradient-p.1)" x="360.46194225721786" y="676.4803149606299" width="899.1181102362206" height="423.40157480314963"/></mask></defs><g id="p.1"><path fill="#000000" fill-opacity="0.0" d="m360.46194 249.07874l899.11816 0l0 423.40155l-899.11816 0z" fill-rule="evenodd"/><path fill="#3c3c3b" d="m473.79007 582.07874q-28.0 0 -53.671875 -7.5q-25.65625 -7.5 -41.328125 -19.5l18.34375 -40.671875q15.0 10.671875 35.5 17.515625q20.5 6.828125 41.5 6.828125q16.0 0 25.828125 -3.171875q9.828125 -3.171875 14.4999695 -8.828125q4.671875 -5.671875 4.671875 -13.0q0 -9.34375 -7.3437195 -14.84375q-7.328125 -5.5 -19.328125 -9.0q-12.0 -3.5 -26.5 -6.65625q-14.5 -3.171875 -29.0 -7.828125q-14.5 -4.671875 -26.5 -12.0q-12.0 -7.34375 -19.5 -19.34375q-7.5 -12.0 -7.5 -30.65625q0 -20.0 10.828125 -36.5q10.84375 -16.5 32.671875 -26.328125q21.828125 -9.84375 54.828125 -9.84375q22.0 0 43.328094 5.171875q21.34375 5.15625 37.671875 15.5l-16.671875 41.0q-16.328125 -9.34375 -32.65625 -13.84375q-16.328094 -4.5 -31.99997 -4.5q-15.671875 0 -25.671875 3.671875q-10.0 3.671875 -14.328125 9.5q-4.328125 5.828125 -4.328125 13.5q0 9.0 7.328125 14.5q7.328125 5.5 19.328125 8.828125q12.0 3.328125 26.5 6.671875q14.5 3.328125 28.99997 7.671875q14.5 4.328125 26.5 11.65625q12.0 7.328125 19.5 19.328125q7.5 12.0 7.5 30.34375q0 19.65625 -11.0 36.0q-11.0 16.328125 -32.828125 26.328125q-21.828094 10.0 -55.171844 10.0zm212.66324 0q-28.0 0 -53.671875 -7.5q-25.65625 -7.5 -41.328125 -19.5l18.34375 -40.671875q15.0 10.671875 35.5 17.515625q20.5 6.828125 41.5 6.828125q16.0 0 25.828125 -3.171875q9.828125 -3.171875 14.5 -8.828125q4.671875 -5.671875 4.671875 -13.0q0 -9.34375 -7.34375 -14.84375q-7.328125 -5.5 -19.328125 -9.0q-12.0 -3.5 -26.5 -6.65625q-14.5 -3.171875 -29.0 -7.828125q-14.5 -4.671875 -26.5 -12.0q-12.0 -7.34375 -19.5 -19.34375q-7.5 -12.0 -7.5 -30.65625q0 -20.0 10.828125 -36.5q10.84375 -16.5 32.671875 -26.328125q21.828125 -9.84375 54.828125 -9.84375q22.0 0 43.328125 5.171875q21.34375 5.15625 37.671875 15.5l-16.671875 41.0q-16.328125 -9.34375 -32.65625 -13.84375q-16.328125 -4.5 -32.0 -4.5q-15.671875 0 -25.671875 3.671875q-10.0 3.671875 -14.328125 9.5q-4.328125 5.828125 -4.328125 13.5q0 9.0 7.328125 14.5q7.328125 5.5 19.328125 8.828125q12.0 3.328125 26.5 6.671875q14.5 3.328125 29.0 7.671875q14.5 4.328125 26.5 11.65625q12.0 7.328125 19.5 19.328125q7.5 12.0 7.5 30.34375q0 19.65625 -11.0 36.0q-11.0 16.328125 -32.828125 26.328125q-21.828125 10.0 -55.171875 10.0zm136.00702 -4.0l0 -233.32812l106.0 0q37.984375 0 66.984375 14.5q29.0 14.5 45.328125 40.5q16.34375 26.0 16.34375 61.65625q0 35.34375 -16.34375 61.515625q-16.328125 26.15625 -45.328125 40.65625q-29.0 14.5 -66.984375 14.5l-106.0 0zm54.0 -44.328125l49.328125 0q23.328125 0 40.484375 -8.828125q17.171875 -8.84375 26.671875 -25.171875q9.5 -16.34375 9.5 -38.34375q0 -22.328125 -9.5 -38.484375q-9.5 -16.171875 -26.671875 -25.0q-17.15625 -8.84375 -40.484375 -8.84375l-49.328125 0l0 144.67188z" fill-rule="nonzero"/></g></g></svg>